<svg width="200" height="200" viewBox="0 0 200 200" fill="none" xmlns="http://www.w3.org/2000/svg">
<path fill-rule="evenodd" clip-rule="evenodd" d="M78 71C72.4772 71 68 75.4772 68 81V126.257C68 128.93 71.2314 130.269 73.1213 128.379L80.5 121H121C126.523 121 131 116.523 131 111V81C131 75.4772 126.523 71 121 71H78ZM119.059 88.57C120.953 89.7066 121.567 92.1637 120.431 94.058C118.238 97.7122 115.096 100.728 111.335 102.817C107.576 104.906 103.322 106 99.0006 106C94.6791 106 90.4254 104.906 86.6657 102.817C82.9051 100.728 79.7632 97.7122 77.5706 94.058C76.434 92.1637 77.0483 89.7066 78.9426 88.57C80.8369 87.4334 83.294 88.0477 84.4306 89.942C85.8865 92.3685 87.9921 94.4024 90.5509 95.8239C93.1105 97.2459 96.0252 98 99.0006 98C101.976 98 104.891 97.2459 107.45 95.8239C110.009 94.4024 112.115 92.3685 113.571 89.942C114.707 88.0477 117.164 87.4334 119.059 88.57Z" fill="#3639FF"/>
</svg>
